<?xml version="1.0" encoding="UTF-8" standalone="no"?>
<svg viewBox="0 0 57.543705 57.543705" xmlns="http://www.w3.org/2000/svg" xmlns:xlink="http://www.w3.org/1999/xlink">
<defs>
<linearGradient id="linearGradient3242">
<stop offset="0" stop-color="#ffd000"/>
<stop offset=".62628" stop-color="#ffb306"/>
<stop offset="1" stop-color="#e68200"/>
</linearGradient>
<linearGradient gradientTransform="matrix(-.124583,.131202,-.124583,-.131202,221.46473,48.156054)" gradientUnits="userSpaceOnUse" id="linearGradient5118" x1="175.73016" x2="240.12082" xlink:href="#linearGradient3242" y1="-7.93945" y2="-72.33012"/>
<linearGradient gradientTransform="matrix(-.131202,-.124583,.131202,-.124583,195.13518,63.634074)" gradientUnits="userSpaceOnUse" id="linearGradient5116" x1="175.73016" x2="240.12082" xlink:href="#linearGradient3242" y1="-7.93945" y2="-72.33012"/>
<linearGradient gradientTransform="matrix(.124583,-.131202,.124583,.131202,179.65716,37.304523)" gradientUnits="userSpaceOnUse" id="linearGradient5114" x1="175.73016" x2="240.12082" xlink:href="#linearGradient3242" y1="-7.93945" y2="-72.33012"/>
<linearGradient gradientTransform="matrix(.131202,.124583,-.131202,.124583,205.98671,21.82651)" gradientUnits="userSpaceOnUse" id="linearGradient5112" x1="175.73016" x2="240.12082" xlink:href="#linearGradient3242" y1="-7.93945" y2="-72.33012"/>
<radialGradient cx="130.74362" cy="119.53385" gradientUnits="userSpaceOnUse" id="radialGradient5102" r="23.30744" xlink:href="#linearGradient3242"/>
</defs>
<path d="m154.05106,119.53385a23.30744,23.30744 0 1,1 -46.61487,0 23.30744,23.30744 0 1,1 46.61487,0z" fill="url(#radialGradient5102)" stroke="#fffcf6" stroke-linecap="round" stroke-linejoin="round" stroke-width="1.67567" transform="matrix(-.576443,.154457,-.154457,-.576443,122.60097,77.481971)"/>
<g transform="matrix(-.576443,.154457,-.154457,-.576443,150.983793,22.4253)">
<path d="m228.76308,37.03351 20.84323,5.69678-20.84323,5.69678 1.42243-5.69678-1.42243-5.69678z" fill="url(#linearGradient5112)" stroke="#fffcf6" stroke-linecap="round" stroke-linejoin="round" stroke-width="1.67567"/>
<path d="m194.86417,14.52815 5.69677-20.84323 5.69678,20.84323-5.69678-1.42243-5.69677,1.42243z" fill="url(#linearGradient5114)" stroke="#fffcf6" stroke-linecap="round" stroke-linejoin="round" stroke-width="1.67567"/>
<path d="m172.35881,48.42706-20.84323-5.69677 20.84323-5.69678-1.42243,5.69678 1.42243,5.69677z" fill="url(#linearGradient5116)" stroke="#fffcf6" stroke-linecap="round" stroke-linejoin="round" stroke-width="1.67567"/>
<path d="m206.25772,70.93242-5.69677,20.84323-5.69678-20.84323 5.69678,1.42243 5.69677-1.42243z" fill="url(#linearGradient5118)" stroke="#fffcf6" stroke-linecap="round" stroke-linejoin="round" stroke-width="1.67567"/>
<g transform="matrix(.707107,-.707107,.707107,.707107,28.528064,154.33342)">
<path d="m228.76308,37.03351 20.84323,5.69678-20.84323,5.69678 1.42243-5.69678-1.42243-5.69678z" fill="url(#linearGradient5112)" stroke="#fffcf6" stroke-linecap="round" stroke-linejoin="round" stroke-width="1.67567"/>
<path d="m194.86417,14.52815 5.69677-20.84323 5.69678,20.84323-5.69678-1.42243-5.69677,1.42243z" fill="url(#linearGradient5114)" stroke="#fffcf6" stroke-linecap="round" stroke-linejoin="round" stroke-width="1.67567"/>
<path d="m172.35881,48.42706-20.84323-5.69677 20.84323-5.69678-1.42243,5.69678 1.42243,5.69677z" fill="url(#linearGradient5116)" stroke="#fffcf6" stroke-linecap="round" stroke-linejoin="round" stroke-width="1.67567"/>
<path d="m206.25772,70.93242-5.69677,20.84323-5.69678-20.84323 5.69678,1.42243 5.69677-1.42243z" fill="url(#linearGradient5118)" stroke="#fffcf6" stroke-linecap="round" stroke-linejoin="round" stroke-width="1.67567"/>
</g>
</g>
</svg>
